<svg width="787" height="352" viewBox="0 0 787 352" fill="none" xmlns="http://www.w3.org/2000/svg">
<path d="M65.5628 38.7704C55.4194 43.3345 45.8728 54.8441 43.0883 65.9568C40.3039 77.0695 40.3039 160.415 43.0883 170.932C44.8783 177.679 55.8172 189.387 110.114 244.157C146.312 280.273 177.935 310.436 181.515 312.023C190.664 315.992 288.716 315.992 298.064 312.023C305.82 308.65 316.163 298.133 319.544 289.996C321.135 286.226 322.328 270.152 322.726 247.332C323.124 227.091 323.919 208.834 324.317 206.453C325.709 200.103 334.261 197.126 340.825 200.5C343.808 202.087 369.465 226.694 397.906 255.269C426.347 283.845 452.998 308.848 457.175 311.031C464.335 314.802 468.114 315 519.228 314.405L563.105 313.924C569.894 313.849 576.504 311.735 582.077 307.856V307.856C597.789 296.743 598.783 293.172 599.38 235.028L599.899 190.67C599.948 186.464 601.873 182.501 605.148 179.862V179.862C609.921 176.091 612.905 175.893 658.848 175.893C713.144 175.893 716.327 175.298 728.459 161.208C736.812 151.882 739 139.975 739 105.446C739 69.9256 736.812 58.8129 727.862 48.8909C715.929 35.7938 712.548 35 667.599 35C624.042 35 619.269 35.9922 608.927 46.1127C597.192 57.8207 595.8 63.9724 595.8 105.843V137.267C595.8 141.466 593.807 145.417 590.43 147.913V147.913C587.049 150.691 583.668 151.683 581.082 150.889C578.696 150.294 552.243 125.291 522.211 95.326C486.212 59.6067 464.931 39.961 460.158 37.9766C454.191 35.5953 443.054 35 401.287 35C351.167 35 349.576 35.1984 341.024 39.5641C336.25 42.1439 329.687 48.0971 326.306 52.6612V52.6612C322.415 58.226 320.252 64.8151 320.088 71.6033L319.345 102.47C318.549 137.594 317.754 144.539 314.969 147.318C306.815 155.652 304.03 153.469 245.955 95.9213C209.956 59.8051 188.476 40.1595 183.703 37.9766C177.537 35.5953 166.797 35 125.03 35C79.485 35 72.7228 35.3969 65.5628 38.7704Z" fill="black"/>
</svg>
