<svg width="170" height="170" viewBox="0 0 170 170" fill="none" xmlns="http://www.w3.org/2000/svg">
<path d="M15.2433 55.8079C13.0781 56.786 11.0402 59.2523 10.4458 61.6336C9.8514 64.0149 9.8514 81.8746 10.4458 84.1283C10.8279 85.5741 13.163 88.0829 24.7535 99.8193C32.4806 107.558 39.2311 114.022 39.9953 114.362C41.9483 115.213 62.8792 115.213 64.8746 114.362C66.5304 113.639 68.7381 111.386 69.4599 109.642C69.7995 108.834 70.0543 105.39 70.1392 100.5C70.2241 96.1623 70.3939 92.2502 70.4788 91.7399C70.776 90.3792 72.6017 89.7413 74.0027 90.4642C74.6396 90.8044 80.1164 96.0773 86.1876 102.201C92.2589 108.324 97.948 113.682 98.8396 114.15C100.368 114.957 101.175 115 112.086 114.872L121.449 114.769C122.9 114.753 124.313 114.3 125.502 113.469V113.469C128.856 111.088 129.068 110.322 129.196 97.8632L129.307 88.3545C129.317 87.4553 129.728 86.6074 130.427 86.0418V86.0418C131.446 85.2339 132.083 85.1914 141.89 85.1914C153.481 85.1914 154.16 85.0638 156.75 82.0447C158.533 80.0461 159 77.4947 159 70.0957C159 62.4841 158.533 60.1028 156.622 57.9766C154.075 55.1701 153.353 55 143.758 55C134.46 55 133.441 55.2126 131.234 57.3813C128.729 59.8902 128.432 61.2084 128.432 70.1807V76.9178C128.432 77.8157 128.006 78.6606 127.285 79.1956V79.1956C126.563 79.7909 125.842 80.0035 125.29 79.8335C124.78 79.7059 119.134 74.348 112.723 67.927C105.038 60.2729 100.495 56.0631 99.4764 55.6379C98.2027 55.1276 95.8252 55 86.9094 55C76.2104 55 75.8708 55.0425 74.0452 55.978C73.0262 56.5308 71.6252 57.8065 70.9034 58.7846V58.7846C70.0727 59.9772 69.6111 61.3878 69.5763 62.8408L69.4174 69.4578C69.2476 76.9844 69.0778 78.4727 68.4834 79.068C66.7427 80.854 66.1483 80.3863 53.7511 68.0546C46.0665 60.3154 41.4813 56.1056 40.4623 55.6379C39.1462 55.1276 36.8535 55 27.9377 55C18.2153 55 16.7718 55.085 15.2433 55.8079Z" fill="black"/>
</svg>
