<svg width="170" height="170" viewBox="0 0 170 170" fill="none" xmlns="http://www.w3.org/2000/svg">
<rect width="170" height="170" fill="white"/>
<path d="M15.2433 37.8079C13.0781 38.786 11.0402 41.2523 10.4458 43.6336C9.8514 46.0149 9.8514 63.8746 10.4458 66.1283C10.8279 67.5741 13.163 70.0829 24.7535 81.8193C32.4806 89.5585 39.2311 96.022 39.9953 96.3622C41.9483 97.2126 62.8792 97.2126 64.8746 96.3622C66.5304 95.6393 68.7381 93.3855 69.4599 91.6421C69.7995 90.8342 70.0543 87.3898 70.1392 82.4996C70.2241 78.1623 70.3939 74.2502 70.4788 73.7399C70.776 72.3792 72.6017 71.7413 74.0027 72.4642C74.6396 72.8044 80.1164 78.0773 86.1876 84.2006C92.2589 90.3239 97.948 95.6818 98.8396 96.1495C100.368 96.9575 101.175 97 112.086 96.8724L121.449 96.7694C122.9 96.7534 124.313 96.3003 125.502 95.4692V95.4692C128.856 93.0879 129.068 92.3225 129.196 79.8632L129.307 70.3545C129.317 69.4553 129.728 68.6074 130.427 68.0418V68.0418C131.446 67.2339 132.083 67.1914 141.89 67.1914C153.481 67.1914 154.16 67.0638 156.75 64.0447C158.533 62.0461 159 59.4947 159 52.0957C159 44.4841 158.533 42.1028 156.622 39.9766C154.075 37.1701 153.353 37 143.758 37C134.46 37 133.441 37.2126 131.234 39.3813C128.729 41.8902 128.432 43.2084 128.432 52.1807V58.9178C128.432 59.8157 128.006 60.6606 127.285 61.1956V61.1956C126.563 61.7909 125.842 62.0035 125.29 61.8335C124.78 61.7059 119.134 56.348 112.723 49.927C105.038 42.2729 100.495 38.0631 99.4764 37.6379C98.2027 37.1276 95.8252 37 86.9094 37C76.2104 37 75.8708 37.0425 74.0452 37.978C73.0262 38.5308 71.6252 39.8065 70.9034 40.7846V40.7846C70.0727 41.9772 69.6111 43.3878 69.5763 44.8408L69.4174 51.4578C69.2476 58.9844 69.0778 60.4727 68.4834 61.068C66.7427 62.854 66.1483 62.3863 53.7511 50.0546C46.0665 42.3154 41.4813 38.1056 40.4623 37.6379C39.1462 37.1276 36.8535 37 27.9377 37C18.2153 37 16.7718 37.085 15.2433 37.8079Z" fill="black"/>
<path d="M18.5817 99.7145C19.6863 99.7145 20.5817 100.61 20.5817 101.714V130.644C20.5817 131.749 19.6863 132.644 18.5817 132.644H15C13.8954 132.644 13 131.749 13 130.644V101.714C13 100.61 13.8954 99.7145 15 99.7145H18.5817Z" fill="black"/>
<path d="M29.8891 105.232C28.559 105.232 27.4654 104.847 26.6082 104.075C25.7805 103.274 25.3667 102.295 25.3667 101.138C25.3667 99.9518 25.7805 98.9728 26.6082 98.2015C27.4654 97.4005 28.559 97 29.8891 97C31.1897 97 32.2538 97.4005 33.0814 98.2015C33.9386 98.9728 34.3672 99.9518 34.3672 101.138C34.3672 102.295 33.9386 103.274 33.0814 104.075C32.2538 104.847 31.1897 105.232 29.8891 105.232ZM31.6578 107.813C32.7624 107.813 33.6578 108.709 33.6578 109.813V130.644C33.6578 131.749 32.7624 132.644 31.6578 132.644H28.0761C26.9715 132.644 26.0761 131.749 26.0761 130.644V109.813C26.0761 108.709 26.9715 107.813 28.0761 107.813H31.6578Z" fill="black"/>
<path d="M54.227 107.546C57.1237 107.546 59.4293 108.496 61.1436 110.394C62.8876 112.263 63.7596 114.844 63.7596 118.137V130.644C63.7596 131.749 62.8641 132.644 61.7596 132.644H58.2222C57.1176 132.644 56.2222 131.749 56.2222 130.644V119.161C56.2222 117.499 55.7936 116.209 54.9364 115.289C54.0792 114.37 52.9264 113.91 51.4781 113.91C50.0297 113.91 48.8769 114.37 48.0197 115.289C47.1625 116.209 46.7339 117.499 46.7339 119.161V130.644C46.7339 131.749 45.8385 132.644 44.7339 132.644H41.1522C40.0476 132.644 39.1522 131.749 39.1522 130.644V109.813C39.1522 108.709 40.0477 107.813 41.1522 107.813H45.9446C46.3805 107.813 46.7339 108.167 46.7339 108.603V108.603C46.7339 109.374 47.8581 109.784 48.4818 109.33C48.896 109.028 49.3479 108.76 49.8376 108.525C51.1381 107.873 52.6013 107.546 54.227 107.546Z" fill="black"/>
<path d="M85.1685 132.644C84.527 132.644 83.9245 132.336 83.5484 131.817L80.2299 127.232C79.0928 125.661 76.6098 126.466 76.6098 128.405V130.644C76.6098 131.749 75.7144 132.644 74.6098 132.644H71.0281C69.9235 132.644 69.0281 131.749 69.0281 130.644V101.714C69.0281 100.61 69.9235 99.7145 71.0281 99.7145H74.6098C75.7144 99.7145 76.6098 100.61 76.6098 101.714V111.862C76.6098 113.789 79.0679 114.601 80.2161 113.053L83.5032 108.622C83.8804 108.113 84.4762 107.813 85.1095 107.813H89.2135C90.9049 107.813 91.8326 109.782 90.7558 111.087L84.2313 118.99C83.6173 119.734 83.6215 120.809 84.2412 121.548L90.7916 129.359C91.8831 130.66 90.9578 132.644 89.2592 132.644H85.1685Z" fill="black"/>
<path d="M108.225 126.192C109.33 126.192 110.225 127.087 110.225 128.192V130.644C110.225 131.749 109.33 132.644 108.225 132.644H106.368C103.619 132.644 101.476 131.977 99.9386 130.642C98.4016 129.277 97.6331 127.067 97.6331 124.011V115.64C97.6331 114.807 96.9582 114.132 96.1256 114.132V114.132C95.2931 114.132 94.6181 113.457 94.6181 112.625V109.321C94.6181 108.488 95.2931 107.813 96.1256 107.813V107.813C96.9582 107.813 97.6331 107.138 97.6331 106.306V103.761C97.6331 102.657 98.5285 101.761 99.6331 101.761H103.215C104.319 101.761 105.215 102.657 105.215 103.761V105.813C105.215 106.918 106.11 107.813 107.215 107.813H108.181C109.285 107.813 110.181 108.709 110.181 109.813V112.132C110.181 113.237 109.285 114.132 108.181 114.132H107.215C106.11 114.132 105.215 115.028 105.215 116.132V124.1C105.215 124.842 105.392 125.376 105.747 125.702C106.102 126.028 106.693 126.192 107.52 126.192H108.225Z" fill="black"/>
<path d="M120.03 101.405C121.134 101.405 122.03 102.301 122.03 103.405V130.644C122.03 131.749 121.134 132.644 120.03 132.644H116.448C115.344 132.644 114.448 131.749 114.448 130.644V103.405C114.448 102.301 115.344 101.405 116.448 101.405H120.03Z" fill="black"/>
<path d="M139.313 126.192C140.418 126.192 141.313 127.087 141.313 128.192V130.644C141.313 131.749 140.418 132.644 139.313 132.644H137.456C134.707 132.644 132.564 131.977 131.027 130.642C129.49 129.277 128.721 127.067 128.721 124.011V115.64C128.721 114.807 128.046 114.132 127.214 114.132V114.132C126.381 114.132 125.706 113.457 125.706 112.625V109.321C125.706 108.488 126.381 107.813 127.214 107.813V107.813C128.046 107.813 128.721 107.138 128.721 106.306V103.761C128.721 102.657 129.617 101.761 130.721 101.761H134.303C135.408 101.761 136.303 102.657 136.303 103.761V105.813C136.303 106.918 137.198 107.813 138.303 107.813H139.269C140.373 107.813 141.269 108.709 141.269 109.813V112.132C141.269 113.237 140.373 114.132 139.269 114.132H138.303C137.198 114.132 136.303 115.028 136.303 116.132V124.1C136.303 124.842 136.48 125.376 136.835 125.702C137.19 126.028 137.781 126.192 138.609 126.192H139.313Z" fill="black"/>
<path d="M153.427 100.293C154.565 100.293 155.473 101.24 155.426 102.376L154.705 119.691C154.661 120.763 153.779 121.608 152.707 121.608H150.115C149.043 121.608 148.161 120.763 148.117 119.691L147.397 102.376C147.349 101.24 148.258 100.293 149.395 100.293H153.427ZM151.522 133C150.192 133 149.098 132.614 148.241 131.843C147.413 131.042 146.999 130.063 146.999 128.906C146.999 127.719 147.413 126.726 148.241 125.925C149.098 125.124 150.192 124.723 151.522 124.723C152.822 124.723 153.887 125.124 154.714 125.925C155.571 126.726 156 127.719 156 128.906C156 130.063 155.571 131.042 154.714 131.843C153.887 132.614 152.822 133 151.522 133Z" fill="black"/>
</svg>
