<svg width="1957" height="352" viewBox="0 0 1957 352" fill="none" xmlns="http://www.w3.org/2000/svg">
<path d="M858.593 56.2633C863.012 56.2633 866.593 59.845 866.593 64.2633V306.211C866.593 310.63 863.012 314.211 858.593 314.211H815C810.582 314.211 807 310.63 807 306.211V64.2633C807 59.845 810.582 56.2633 815 56.2633H858.593Z" fill="currentColor"/>
<path d="M939.751 99.487C929.296 99.487 920.7 96.466 913.962 90.424C907.457 84.1496 904.204 76.4809 904.204 67.4178C904.204 58.1224 907.457 50.4537 913.962 44.4116C920.7 38.1372 929.296 35 939.751 35C949.974 35 958.338 38.1372 964.843 44.4116C971.581 50.4537 974.949 58.1224 974.949 67.4178C974.949 76.4809 971.581 84.1496 964.843 90.424C958.338 96.466 949.974 99.487 939.751 99.487ZM961.373 119.705C965.792 119.705 969.373 123.286 969.373 127.705V306.211C969.373 310.63 965.792 314.211 961.373 314.211H917.78C913.362 314.211 909.78 310.63 909.78 306.211V127.705C909.78 123.286 913.362 119.705 917.78 119.705H961.373Z" fill="currentColor"/>
<path d="M1131.05 117.613C1153.82 117.613 1171.94 125.049 1185.42 139.922C1199.12 154.562 1205.98 174.78 1205.98 200.575V306.211C1205.98 310.63 1202.4 314.211 1197.98 314.211H1154.73C1150.31 314.211 1146.73 310.63 1146.73 306.211V208.592C1146.73 195.579 1143.36 185.47 1136.63 178.266C1129.89 171.062 1120.83 167.46 1109.44 167.46C1098.06 167.46 1089 171.062 1082.26 178.266C1075.52 185.47 1072.15 195.579 1072.15 208.592V306.211C1072.15 310.63 1068.57 314.211 1064.15 314.211H1020.56C1016.14 314.211 1012.56 310.63 1012.56 306.211V127.705C1012.56 123.286 1016.14 119.705 1020.56 119.705H1065.96C1069.38 119.705 1072.15 122.479 1072.15 125.901V125.901C1072.15 131.954 1080.96 135.171 1085.85 131.611C1089.12 129.236 1092.69 127.126 1096.55 125.282C1106.77 120.169 1118.27 117.613 1131.05 117.613Z" fill="currentColor"/>
<path d="M1370.3 314.211C1367.74 314.211 1365.34 312.985 1363.83 310.913L1321.45 252.57C1316.9 246.299 1306.98 249.521 1306.98 257.271V306.211C1306.98 310.63 1303.4 314.211 1298.98 314.211H1255.39C1250.97 314.211 1247.39 310.63 1247.39 306.211V64.2633C1247.39 59.845 1250.97 56.2633 1255.39 56.2633H1298.98C1303.4 56.2633 1306.98 59.845 1306.98 64.2633V174.685C1306.98 182.388 1316.8 185.641 1321.4 179.462L1363.48 122.928C1364.99 120.9 1367.37 119.705 1369.9 119.705H1422.4C1429.17 119.705 1432.88 127.593 1428.56 132.808L1362.82 212.163C1360.35 215.141 1360.37 219.458 1362.86 222.417L1429.04 301.06C1433.42 306.264 1429.72 314.211 1422.92 314.211H1370.3Z" fill="currentColor"/>
<path d="M1563.2 263.667C1567.62 263.667 1571.2 267.249 1571.2 271.667V306.211C1571.2 310.63 1567.62 314.211 1563.2 314.211H1540.88C1519.28 314.211 1502.43 308.983 1490.35 298.525C1478.27 287.836 1472.23 270.523 1472.23 246.587V177.203C1472.23 172.784 1468.65 169.203 1464.23 169.203H1456.53C1452.11 169.203 1448.53 165.621 1448.53 161.203V127.705C1448.53 123.286 1452.11 119.705 1456.53 119.705H1464.23C1468.65 119.705 1472.23 116.123 1472.23 111.705V80.2979C1472.23 75.8796 1475.81 72.2979 1480.23 72.2979H1523.82C1528.24 72.2979 1531.82 75.8796 1531.82 80.2979V111.705C1531.82 116.123 1535.4 119.705 1539.82 119.705H1562.85C1567.27 119.705 1570.85 123.286 1570.85 127.705V161.203C1570.85 165.621 1567.27 169.203 1562.85 169.203H1539.82C1535.4 169.203 1531.82 172.784 1531.82 177.203V247.284C1531.82 253.094 1533.22 257.277 1536 259.833C1538.79 262.389 1543.44 263.667 1549.94 263.667H1563.2Z" fill="currentColor"/>
<path d="M1655.99 69.5093C1660.41 69.5093 1663.99 73.091 1663.99 77.5093V306.211C1663.99 310.63 1660.41 314.211 1655.99 314.211H1612.4C1607.98 314.211 1604.4 310.63 1604.4 306.211V77.5093C1604.4 73.091 1607.98 69.5093 1612.4 69.5093H1655.99Z" fill="currentColor"/>
<path d="M1807.56 263.667C1811.98 263.667 1815.56 267.249 1815.56 271.667V306.211C1815.56 310.63 1811.98 314.211 1807.56 314.211H1785.24C1763.63 314.211 1746.79 308.983 1734.71 298.525C1722.63 287.836 1716.59 270.523 1716.59 246.587V177.203C1716.59 172.784 1713 169.203 1708.59 169.203H1700.89C1696.47 169.203 1692.89 165.621 1692.89 161.203V127.705C1692.89 123.286 1696.47 119.705 1700.89 119.705H1708.59C1713 119.705 1716.59 116.123 1716.59 111.705V80.2979C1716.59 75.8796 1720.17 72.2979 1724.59 72.2979H1768.18C1772.6 72.2979 1776.18 75.8796 1776.18 80.2979V111.705C1776.18 116.123 1779.76 119.705 1784.18 119.705H1807.21C1811.63 119.705 1815.21 123.286 1815.21 127.705V161.203C1815.21 165.621 1811.63 169.203 1807.21 169.203H1784.18C1779.76 169.203 1776.18 172.784 1776.18 177.203V247.284C1776.18 253.094 1777.57 257.277 1780.36 259.833C1783.15 262.389 1787.8 263.667 1794.3 263.667H1807.56Z" fill="currentColor"/>
<path d="M1918.83 60.7948C1923.37 60.7948 1927.01 64.5832 1926.82 69.1285L1920.52 220.098C1920.34 224.382 1916.81 227.764 1912.52 227.764H1877.34C1873.05 227.764 1869.52 224.382 1869.34 220.098L1863.04 69.1284C1862.85 64.5832 1866.49 60.7948 1871.04 60.7948H1918.83ZM1895.8 317C1885.35 317 1876.75 313.979 1870.01 307.937C1863.51 301.663 1860.25 293.994 1860.25 284.931C1860.25 275.635 1863.51 267.85 1870.01 261.576C1876.75 255.302 1885.35 252.164 1895.8 252.164C1906.02 252.164 1914.39 255.302 1920.89 261.576C1927.63 267.85 1931 275.635 1931 284.931C1931 293.994 1927.63 301.663 1920.89 307.937C1914.39 313.979 1906.02 317 1895.8 317Z" fill="currentColor"/>
<path d="M65.5628 38.7704C55.4194 43.3345 45.8728 54.8441 43.0883 65.9568C40.3039 77.0695 40.3039 160.415 43.0883 170.932C44.8783 177.679 55.8172 189.387 110.114 244.157C146.312 280.273 177.935 310.436 181.515 312.023C190.664 315.992 288.716 315.992 298.064 312.023C305.82 308.65 316.163 298.133 319.544 289.996C321.135 286.226 322.328 270.152 322.726 247.332C323.124 227.091 323.919 208.834 324.317 206.453C325.709 200.103 334.261 197.126 340.825 200.5C343.808 202.087 369.465 226.694 397.906 255.269C426.347 283.845 452.998 308.848 457.175 311.031C464.335 314.802 468.114 315 519.228 314.405L563.105 313.924C569.894 313.849 576.504 311.735 582.077 307.856V307.856C597.789 296.743 598.783 293.172 599.38 235.028L599.899 190.67C599.948 186.464 601.873 182.501 605.148 179.862V179.862C609.921 176.091 612.905 175.893 658.848 175.893C713.144 175.893 716.327 175.298 728.459 161.208C736.812 151.882 739 139.975 739 105.446C739 69.9256 736.812 58.8129 727.862 48.8909C715.929 35.7938 712.548 35 667.599 35C624.042 35 619.269 35.9922 608.927 46.1127C597.192 57.8207 595.8 63.9724 595.8 105.843V137.267C595.8 141.466 593.807 145.417 590.43 147.913V147.913C587.049 150.691 583.668 151.683 581.082 150.889C578.696 150.294 552.243 125.291 522.211 95.326C486.212 59.6067 464.931 39.961 460.158 37.9766C454.191 35.5953 443.054 35 401.287 35C351.167 35 349.576 35.1984 341.024 39.5641C336.25 42.1439 329.687 48.0971 326.306 52.6612V52.6612C322.415 58.226 320.252 64.8151 320.088 71.6033L319.345 102.47C318.549 137.594 317.754 144.539 314.969 147.318C306.815 155.652 304.03 153.469 245.955 95.9213C209.956 59.8051 188.476 40.1595 183.703 37.9766C177.537 35.5953 166.797 35 125.03 35C79.485 35 72.7228 35.3969 65.5628 38.7704Z" fill="currentColor"/>
</svg>
